<?xml version="1.0" standalone="no"?><!DOCTYPE svg PUBLIC "-//W3C//DTD SVG 1.1//EN" "http://www.w3.org/Graphics/SVG/1.1/DTD/svg11.dtd"><svg t="1733749153482" class="icon" viewBox="0 0 1024 1024" version="1.1" xmlns="http://www.w3.org/2000/svg" p-id="9027" xmlns:xlink="http://www.w3.org/1999/xlink" width="200" height="200"><path d="M375.930223 599.306445H174.882632c-26.254873 0-44.357548-26.254873-35.006498-50.77141L339.604987 24.156881A37.488123 37.488123 0 0 1 374.611485 0h337.117368c26.614529 0 44.717204 26.974185 34.706785 51.610607L630.086987 337.117368h218.970439c32.189194 0 49.39273 37.943687 28.173037 62.160511L340.384242 1011.052391c-26.075045 29.731546-74.508693 3.956214-64.378388-34.287186L375.930223 599.306445z m24.516537-524.378154L229.190657 524.378154h195.412984a37.476134 37.476134 0 0 1 36.20535 47.054967l-71.571503 270.401217 377.159047-429.788679H574.400281c-26.614529 0-44.717204-26.974185-34.706785-51.610607L656.042147 74.928291H400.44676z" p-id="9028" fill="#2c2c2c"></path></svg>