<?xml version="1.0" standalone="no"?><!DOCTYPE svg PUBLIC "-//W3C//DTD SVG 1.1//EN" "http://www.w3.org/Graphics/SVG/1.1/DTD/svg11.dtd"><svg t="1733749054505" class="icon" viewBox="0 0 1024 1024" version="1.1" xmlns="http://www.w3.org/2000/svg" p-id="4441" xmlns:xlink="http://www.w3.org/1999/xlink" width="200" height="200"><path d="M152.683789 213.261474v236.058947a431.157895 431.157895 0 0 0 177.583158 348.698947L512 930.223158l181.733053-132.20379a431.157895 431.157895 0 0 0 177.583158-348.698947v-236.058947L512 76.746105 152.683789 213.261474zM80.842105 163.678316L512 0l431.157895 163.84v285.588211a503.107368 503.107368 0 0 1-207.171369 406.689684L512 1019.149474l-223.986526-162.869895A503.053474 503.053474 0 0 1 80.842105 449.320421v-285.642105z" fill="#2c2c2c" fill-opacity=".85" p-id="4442"></path><path d="M512 545.414737a143.683368 143.683368 0 1 1 0-287.420632 143.683368 143.683368 0 0 1 0 287.420632z m0-71.895579A71.841684 71.841684 0 1 0 512 329.835789a71.841684 71.841684 0 0 0 0 143.683369z" fill="#2c2c2c" p-id="4443"></path><path d="M512 509.466947c23.983158 0 35.947789 11.964632 35.947789 35.94779v184.266105c0 23.929263-11.964632 35.893895-35.947789 35.893895-23.929263 0-35.947789-11.964632-35.947789-35.893895v-184.32c0-23.929263 12.018526-35.893895 35.947789-35.893895z" fill="#2c2c2c" p-id="4444"></path><path d="M619.789474 638.167579c0 23.983158-11.964632 35.947789-35.94779 35.947789H515.610947c-23.983158 0-35.947789-11.964632-35.947789-35.893894 0-23.983158 11.964632-35.947789 35.947789-35.94779h68.230737c23.983158 0 35.947789 11.964632 35.94779 35.893895z" fill="#2c2c2c" p-id="4445"></path></svg>