<?xml version="1.0" standalone="no"?><!DOCTYPE svg PUBLIC "-//W3C//DTD SVG 1.1//EN" "http://www.w3.org/Graphics/SVG/1.1/DTD/svg11.dtd"><svg t="1733749109097" class="icon" viewBox="0 0 1024 1024" version="1.1" xmlns="http://www.w3.org/2000/svg" p-id="7855" xmlns:xlink="http://www.w3.org/1999/xlink" width="200" height="200"><path d="M256.081154 102.485701a102.390478 102.390478 0 1 1 185.736327 59.437672l57.543448 153.380936a256.436951 256.436951 0 0 1 205.036932 34.352005l118.261001-118.261002a102.390478 102.390478 0 1 1 72.390068 72.390068l-118.261002 118.261002C803.665429 462.593011 819.228781 511.126097 819.228781 563.24285c0 52.219144-15.614548 100.701035-42.389657 141.145274l118.261001 118.261002a102.390478 102.390478 0 1 1-72.390067 72.390067l-118.261002-118.261001A256.078585 256.078585 0 0 1 312.395917 614.438089H191.114396a102.390478 102.390478 0 1 1 0-102.339282H312.395917a255.976194 255.976194 0 0 1 94.557606-151.537907L348.38617 204.364226A102.390478 102.390478 0 0 1 256.081154 102.485701z m307.171433 307.171433a153.585717 153.585717 0 1 0 0 307.171433 153.585717 153.585717 0 0 0 0-307.171433z" p-id="7856" fill="#2c2c2c"></path></svg>